<svg width="66" height="102" viewBox="0 0 66 102" fill="none" xmlns="http://www.w3.org/2000/svg">
<path d="M2 0.5C1.17157 0.5 0.5 1.17157 0.5 2C0.5 2.82843 1.17157 3.5 2 3.5V0.5ZM36 12.0593L35.2395 13.3522L36 12.0593ZM51.5692 36.6479L53.0074 36.2217L51.5692 36.6479ZM53.2905 100.935C53.8763 101.52 54.826 101.52 55.4118 100.935L64.9578 91.3886C65.5436 90.8028 65.5436 89.8531 64.9578 89.2673C64.372 88.6815 63.4222 88.6815 62.8364 89.2673L54.3512 97.7526L45.8659 89.2673C45.2801 88.6815 44.3303 88.6815 43.7446 89.2673C43.1588 89.8531 43.1588 90.8028 43.7446 91.3886L53.2905 100.935ZM2 3.5C14.2959 3.5 24.4025 6.97752 35.2395 13.3522L36.7605 10.7664C25.5855 4.19288 14.9574 0.5 2 0.5V3.5ZM35.2395 13.3522C36.5032 14.0956 37.9751 15.5195 39.5338 17.4591C41.0733 19.3747 42.6204 21.6952 44.0536 24.1214C46.9326 28.9957 49.2631 34.1448 50.131 37.074L53.0074 36.2217C52.0448 32.973 49.5866 27.5901 46.6366 22.5957C45.1552 20.0877 43.5277 17.6396 41.8723 15.5798C40.2361 13.5439 38.4927 11.7853 36.7605 10.7664L35.2395 13.3522ZM50.131 37.074C52.9445 46.5694 53.6402 57.1451 53.6169 67.949C53.6052 73.3457 53.4148 78.7723 53.2262 84.1358C53.0379 89.4898 52.8512 94.7845 52.8512 99.8739H55.8512C55.8512 94.8467 56.0356 89.6061 56.2243 84.2412C56.4127 78.8858 56.6051 73.4098 56.6169 67.9554C56.6404 57.057 55.9451 46.1363 53.0074 36.2217L50.131 37.074Z" fill="#163570"/>
</svg>
