<svg width="36" height="37" viewBox="0 0 36 37" fill="none" xmlns="http://www.w3.org/2000/svg">
<path d="M16.8777 1.41519C17.4958 1.82717 18.5073 1.82717 19.1245 1.41519L20.7567 0.325063C21.3745 -0.0874825 22.2047 0.0905543 22.6019 0.720221L23.6518 2.38461C24.0491 3.01392 24.9725 3.42717 25.7036 3.30285L27.6361 2.97371C28.3674 2.84924 29.0546 3.35056 29.1623 4.08808L29.4489 6.03405C29.5576 6.77171 30.2333 7.52803 30.9519 7.71405L32.8482 8.20568C33.5669 8.39242 33.9912 9.13276 33.7916 9.85078L33.2664 11.7426C33.0669 12.4605 33.3789 13.4276 33.9601 13.8912L35.4994 15.1187C36.0805 15.5822 36.1686 16.431 35.6958 17.0058L34.4461 18.5222C33.9733 19.0965 33.8677 20.1072 34.211 20.768L35.1186 22.512C35.462 23.1731 35.2002 23.9852 34.5358 24.3166L32.7802 25.1925C32.1158 25.5242 31.6108 26.4046 31.657 27.1486L31.7783 29.113C31.8253 29.8567 31.2563 30.492 30.5149 30.5238L28.5579 30.607C27.8171 30.6389 26.9993 31.2367 26.7403 31.9358L26.0595 33.7794C25.8005 34.4787 25.0248 34.8265 24.3351 34.5522L22.5119 33.8277C21.8227 33.5532 20.8336 33.7644 20.3145 34.2972L18.9453 35.7031C18.4259 36.2356 17.5769 36.2356 17.0572 35.7038L15.6858 34.297C15.1663 33.7647 14.1772 33.5536 13.4876 33.8279L11.6653 34.5523C10.9758 34.8268 10.1999 34.479 9.94146 33.7795L9.25908 31.936C9.0004 31.237 8.18267 30.639 7.44143 30.6072L5.4852 30.5239C4.74376 30.492 4.17549 29.8568 4.22176 29.1132L4.34417 27.1488C4.39023 26.405 3.88447 25.5243 3.22023 25.1927L1.46523 24.3168C0.801057 23.9853 0.53844 23.1734 0.882057 22.5122L1.78965 20.7681C2.13306 20.1074 2.02745 19.0967 1.55403 18.5229L0.304229 17.0046C-0.168833 16.4306 -0.0802395 15.5819 0.500612 15.1183L2.04031 13.8908C2.62116 13.4273 2.93349 12.4608 2.73423 11.7425L2.20773 9.84986C2.00832 9.13191 2.43273 8.39206 3.15076 8.20646L5.04849 7.71377C5.76652 7.52796 6.44314 6.77164 6.55149 6.03397L6.83787 4.08801C6.94644 3.35049 7.63332 2.84917 8.36443 2.97363L10.2971 3.30278C11.0284 3.4271 11.9517 3.01385 12.3484 2.38454L13.3978 0.72015C13.7945 0.0904837 14.6253 -0.0875531 15.2435 0.324992L16.8777 1.41519Z" fill="#163570" fill-opacity="0.85"/>
<path d="M29.6467 18.1217C29.6467 24.5878 24.4316 29.8294 17.9994 29.8294C11.5677 29.8294 6.35254 24.5878 6.35254 18.1217C6.35254 11.6576 11.5675 6.41577 17.9994 6.41577C24.4316 6.41577 29.6467 11.6576 29.6467 18.1217Z" fill="#012351"/>
<path d="M16.0575 23.5912L11.3955 18.9047L12.9487 17.3428L16.0575 20.4671L23.0501 13.4373L24.6033 14.9998L16.0575 23.5912Z" fill="white"/>
</svg>
